<?xml version="1.0" standalone="no"?>
<!DOCTYPE svg PUBLIC "-//W3C//DTD SVG 20010904//EN"
 "http://www.w3.org/TR/2001/REC-SVG-20010904/DTD/svg10.dtd">
<svg version="1.0" xmlns="http://www.w3.org/2000/svg"
 width="391.000000pt" height="391.000000pt" viewBox="0 0 391.000000 391.000000"
 preserveAspectRatio="xMidYMid meet">
<metadata>
Created by potrace 1.11, written by Peter Selinger 2001-2013
</metadata>
<g transform="translate(0.000000,391.000000) scale(0.100000,-0.100000)"
fill="#000000" stroke="none">
<path d="M919 3295 c-360 -59 -665 -321 -751 -644 -17 -68 -19 -95 -14 -256 4
-100 2 -205 -3 -237 -6 -33 -38 -117 -76 -198 -46 -100 -64 -148 -59 -163 9
-33 40 -62 84 -82 45 -20 63 -61 53 -120 -5 -31 -2 -36 30 -55 l35 -21 -5 -62
c-5 -58 -3 -66 21 -92 24 -26 26 -33 20 -89 -8 -84 20 -137 95 -179 58 -33
112 -37 254 -22 54 6 77 4 115 -10 103 -40 195 -163 256 -344 19 -57 41 -108
48 -112 7 -5 163 -9 346 -9 295 0 332 2 332 16 0 27 -50 167 -77 214 -14 25
-40 60 -57 78 -57 62 -102 74 -190 50 -59 -16 -181 3 -253 38 -100 48 -173
160 -173 263 0 29 -9 64 -25 95 -14 27 -25 65 -25 84 0 19 -10 47 -21 64 -12
16 -24 49 -27 73 -4 37 -10 48 -41 68 -20 13 -50 44 -66 67 -26 37 -30 52 -30
109 0 61 5 77 68 207 l68 141 -2 229 c-1 245 3 276 55 405 59 144 212 329 360
434 l70 49 -35 8 c-68 16 -291 18 -380 3z"/>
<path d="M1785 3300 c-251 -35 -450 -133 -606 -297 -89 -93 -147 -186 -186
-298 -28 -79 -28 -82 -28 -325 0 -135 -4 -256 -8 -270 -5 -14 -33 -77 -63
-140 -29 -63 -56 -128 -59 -145 -8 -43 25 -92 79 -116 47 -20 56 -37 56 -106
0 -34 6 -46 31 -67 30 -26 31 -29 24 -81 -6 -51 -5 -56 21 -80 26 -24 28 -31
26 -95 -3 -77 9 -109 55 -151 64 -59 138 -76 237 -54 83 19 132 13 199 -23 96
-51 185 -187 237 -360 13 -43 29 -76 40 -82 11 -6 146 -10 330 -10 l312 0 -7
33 c-11 51 -63 171 -97 222 -59 88 -109 107 -230 85 -39 -7 -76 -7 -121 0
-175 28 -280 131 -293 288 -4 37 -15 85 -25 108 -10 22 -19 57 -19 78 0 22 -9
48 -21 65 -12 16 -24 49 -26 75 -5 37 -11 49 -39 68 -46 31 -91 95 -105 151
-15 53 -8 74 80 262 l56 120 0 235 c0 197 3 246 18 300 56 199 219 418 408
546 l71 49 -43 7 c-84 12 -245 17 -304 8z"/>
<path d="M2565 3304 c-280 -43 -475 -152 -639 -356 -37 -46 -87 -122 -110
-169 -60 -119 -71 -188 -62 -409 8 -215 3 -246 -75 -409 -32 -68 -59 -136 -59
-151 0 -33 34 -71 88 -99 34 -17 41 -27 47 -60 4 -22 4 -45 0 -51 -11 -18 6
-50 36 -66 31 -16 32 -26 13 -96 -3 -9 9 -32 27 -53 30 -34 31 -39 25 -96 -10
-102 28 -164 121 -199 60 -23 123 -25 205 -9 162 33 309 -107 393 -371 15 -47
34 -91 43 -97 12 -10 117 -13 447 -13 406 0 433 1 448 18 15 16 17 53 17 312
l0 293 49 92 c143 267 250 568 292 815 18 108 15 318 -6 415 -21 100 -66 209
-117 285 -179 269 -597 464 -1018 475 -74 2 -148 1 -165 -1z m319 -556 c19
-17 30 -42 41 -97 9 -41 17 -76 18 -77 7 -6 101 -44 108 -44 5 0 36 18 70 40
34 22 72 40 83 40 56 0 176 -122 176 -177 0 -10 -20 -49 -44 -86 l-44 -68 20
-47 c25 -56 28 -59 93 -67 66 -9 111 -29 124 -53 6 -12 11 -60 11 -107 0 -81
-2 -88 -28 -114 -20 -20 -45 -31 -93 -40 -36 -7 -70 -16 -76 -19 -6 -4 -19
-27 -30 -52 l-20 -45 45 -68 c63 -94 61 -113 -22 -196 -83 -83 -110 -86 -203
-23 -34 23 -65 42 -70 42 -4 0 -26 -7 -49 -16 -40 -15 -42 -18 -53 -77 -28
-148 -38 -157 -166 -157 -122 1 -130 8 -159 142 l-17 77 -44 17 -44 16 -72
-46 c-102 -65 -116 -63 -206 27 -51 51 -73 81 -73 98 0 13 21 55 46 92 l45 68
-17 47 c-10 26 -22 50 -27 53 -4 3 -41 12 -80 19 -55 10 -78 19 -100 41 -28
29 -29 31 -25 123 4 119 13 130 113 147 40 6 77 14 82 18 6 3 20 28 31 54 l22
49 -39 56 c-48 71 -56 96 -41 131 16 40 136 141 166 141 14 0 54 -20 91 -44
l66 -45 54 27 c33 16 55 34 58 47 2 11 9 46 15 77 16 84 38 98 151 98 77 0 91
-3 113 -22z"/>
<path d="M2720 2593 c-16 -90 -29 -108 -92 -129 -29 -9 -72 -28 -96 -40 -51
-27 -68 -23 -145 32 l-49 36 -28 -27 -28 -27 45 -71 c44 -66 45 -72 33 -101
-7 -17 -23 -60 -36 -96 -14 -36 -33 -72 -44 -81 -11 -9 -49 -23 -85 -30 l-65
-13 0 -36 0 -37 81 -16 c45 -9 88 -22 95 -28 8 -6 19 -30 25 -52 6 -23 22 -63
35 -90 29 -56 27 -63 -26 -146 -22 -34 -40 -65 -40 -70 0 -4 11 -18 24 -30
l24 -22 71 45 c75 48 103 55 136 33 11 -8 43 -22 70 -32 28 -10 57 -25 66 -32
10 -8 24 -51 34 -104 l17 -89 33 0 c38 0 38 1 55 96 7 38 18 77 24 85 12 17
173 89 196 89 8 0 46 -21 84 -45 l70 -45 27 26 c16 15 25 32 22 38 -4 6 -24
37 -45 68 -36 54 -50 110 -29 122 4 3 19 34 31 68 31 84 42 95 109 108 107 22
101 19 101 59 l0 38 -72 13 c-76 15 -118 42 -118 76 0 10 -14 48 -31 86 l-32
68 30 48 c16 26 37 59 46 73 16 25 16 26 -11 52 l-28 26 -59 -39 c-33 -22 -71
-40 -85 -40 -14 0 -52 14 -84 30 -32 17 -66 30 -75 30 -39 0 -59 29 -77 110
l-17 80 -37 0 -38 0 -12 -67z m187 -293 c62 -26 136 -101 166 -168 32 -71 30
-180 -4 -253 -31 -66 -90 -128 -151 -161 -36 -19 -58 -23 -138 -23 -84 0 -101
3 -146 27 -65 34 -134 111 -157 174 -20 58 -22 163 -3 217 32 90 108 163 204
200 62 23 159 18 229 -13z"/>
<path d="M2682 2189 c-77 -39 -121 -125 -108 -211 24 -158 213 -230 332 -126
102 89 97 237 -9 322 -32 26 -48 31 -105 34 -54 2 -76 -1 -110 -19z"/>
</g>
</svg>
